# xmcd CD database file
#
# Track frame offsets:
#	150
#	26313
#	45314
#	75078
#	100803
#	124626
#	149455
#	171828
#
# Disc length: 2542 seconds
#
# Revision: 0
# Processed by: cddbd v1.5.1PL2 Copyright (c) Steve Scherf et al.
# Submitted via: CDex 1.50
#
DISCID=5309ec08
DTITLE=Piero Bassini Trio - Minor Context
DYEAR=1998
DGENRE=Jazz
TTITLE0=Autumn Waltz
TTITLE1=For my Father
TTITLE2=Minor Context
TTITLE3=What is this Thing Called Love
TTITLE4=Open Space
TTITLE5=Someday My Prince Will Come
TTITLE6=Madness Blues
TTITLE7=Notenbüchlein
EXTD=YEAR: 1998
EXTT0=
EXTT1=
EXTT2=
EXTT3=
EXTT4=
EXTT5=
EXTT6=
EXTT7=
PLAYORDER=
